<svg width="40" height="40" viewBox="0 0 40 40" fill="none" xmlns="http://www.w3.org/2000/svg">
<rect width="40" height="40" rx="10" fill="#BBBBBB"/>
<path d="M20 10C14.4772 10 10 14.4772 10 20C10 25.5229 14.4772 30 20 30C23.7069 30 26.9398 27.9816 28.667 24.9854L25.1465 22.9602C24.1203 24.7401 22.2021 25.9412 20 25.9412C16.7188 25.9412 14.0588 23.2812 14.0588 20C14.0588 16.7188 16.7188 14.0588 20 14.0588C21.4065 14.0588 22.6955 14.5509 23.7122 15.3687L21.0864 17.2363L30 20.2087V10.8936L27.0972 12.959C25.2854 11.1325 22.7759 10 20 10Z" fill="#444444"/>
</svg>
